<svg width="32" height="32" viewBox="0 0 32 32" fill="none" xmlns="http://www.w3.org/2000/svg">
<path d="M7.70631 21.3333C6.22388 22.1769 5.33594 23.2513 5.33594 24.421C5.33594 27.1339 10.1116 29.3333 16.0026 29.3333C21.8937 29.3333 26.6693 27.1339 26.6693 24.421C26.6693 23.2513 25.7813 22.1769 24.2989 21.3333" stroke="#7F8405" stroke-width="1.5" stroke-linecap="round"/>
<path d="M17.3334 9.33325H14.6718C10.8452 9.33325 8.26528 13.4254 9.77264 17.1039C9.98262 17.6165 10.4644 17.9486 10.9974 17.9486H11.9347C12.2507 17.9486 12.5261 18.1735 12.6027 18.4941L13.8094 23.5422C14.061 24.5949 14.9653 25.3333 16.0026 25.3333C17.0399 25.3333 17.9442 24.5949 18.1958 23.5422L19.4025 18.4941C19.4791 18.1735 19.7546 17.9486 20.0705 17.9486H21.0078C21.5409 17.9486 22.0226 17.6165 22.2326 17.1039C23.7399 13.4254 21.1599 9.33325 17.3334 9.33325Z" stroke="#F3FE00" stroke-width="1.5"/>
<path d="M19.3307 6.00033C19.3307 7.84127 17.8383 9.33366 15.9974 9.33366C14.1565 9.33366 12.6641 7.84127 12.6641 6.00033C12.6641 4.15938 14.1565 2.66699 15.9974 2.66699C17.8383 2.66699 19.3307 4.15938 19.3307 6.00033Z" stroke="#F3FE00" stroke-width="1.5"/>
</svg>
