<svg width="99" height="15" viewBox="0 0 99 15" fill="none" xmlns="http://www.w3.org/2000/svg">
<g clip-path="url(#clip0_134_24702)">
<path d="M6.12351 5.16477C6.12351 5.16477 5.30806 5.08365 5.30806 5.81028V9.03783H10.6931V10.0064C10.6931 10.0064 10.7092 10.4904 10.2036 10.4904H5.30806V14.6866H11.1827C11.1827 14.6866 14.7396 14.1376 14.7725 10.4904V5.16477H6.12351ZM14.6088 0H4.00235C0.167063 0.903573 0.0859375 4.05069 0.0859375 4.05069V14.6866H4.166V5.00322C4.166 4.18007 4.98146 4.03531 4.98146 4.03531H14.6095L14.6088 0ZM28.6114 11.6429L27.9785 12.0542C27.4554 12.378 26.9567 12.6276 26.4945 12.827C25.8252 13.1011 25.2286 13.2382 24.6936 13.2382C22.8564 13.2382 21.3353 12.6773 20.1058 11.5429C18.8763 10.4086 18.2693 8.98817 18.2693 7.26845C18.2693 5.61097 18.8169 4.17728 19.924 2.9555C21.0311 1.73371 22.3696 1.13576 23.9516 1.13576C24.609 1.13576 25.314 1.24766 26.0441 1.48544C26.9931 1.78407 27.7596 2.23306 28.3681 2.81842L27.3092 3.98985C26.8595 3.55415 26.2756 3.22964 25.5937 3.03033C25.0832 2.88066 24.5237 2.80653 23.9026 2.80653C22.7956 2.80653 21.8584 3.25412 21.1164 4.13951C20.3744 5.03679 19.9974 6.09632 19.9974 7.34258C19.9974 8.57695 20.4226 9.58613 21.2744 10.3967C22.1263 11.2072 23.2089 11.6178 24.523 11.6178C25.0706 11.6178 25.6308 11.4429 26.2021 11.1072L26.9323 10.5582V8.00348H23.3795L23.8901 6.40824H28.6114V11.6429ZM39.3431 8.5266C39.3431 9.76027 38.9053 10.8324 38.029 11.7297C37.1527 12.6269 36.0701 13.0885 34.7805 13.0885C33.5881 13.0885 32.5418 12.6395 31.6411 11.7548C30.7403 10.8702 30.3025 9.79803 30.3025 8.53919C30.3025 7.29293 30.7291 6.22081 31.5802 5.29835C31.9717 4.85781 32.4538 4.5072 32.9935 4.27059C33.5333 4.03398 34.1178 3.91697 34.7071 3.92761C36.0701 3.92761 37.1772 4.36401 38.0409 5.2487C38.9053 6.10891 39.3431 7.20551 39.3431 8.5266ZM37.6758 8.55177C37.6758 7.71674 37.3961 7.00619 36.8366 6.43271C36.2771 5.84665 35.5834 5.55991 34.756 5.55991C33.9776 5.55991 33.3202 5.85924 32.7726 6.45789C32.225 7.05654 31.9572 7.74122 31.9572 8.51401C31.9572 9.32457 32.2369 10.0099 32.7845 10.5834C33.0463 10.8656 33.3648 11.0893 33.7192 11.2396C34.0736 11.3899 34.4558 11.4635 34.8406 11.4555C35.6078 11.4555 36.2645 11.1688 36.8247 10.5953C37.0983 10.3306 37.3149 10.0128 37.4614 9.66139C37.6079 9.31001 37.6804 8.93243 37.6758 8.55177ZM49.9286 8.5266C49.9286 9.76027 49.4908 10.8324 48.6145 11.7297C47.7382 12.6269 46.6556 13.0885 45.366 13.0885C44.1736 13.0885 43.1273 12.6395 42.2266 11.7548C41.7929 11.3408 41.45 10.8411 41.2196 10.2876C40.9892 9.73404 40.8763 9.13866 40.888 8.53919C40.888 7.29293 41.3146 6.22081 42.1657 5.29835C42.5572 4.85781 43.0393 4.5072 43.5791 4.27059C44.1188 4.03398 44.7033 3.91697 45.2926 3.92761C46.6556 3.92761 47.7627 4.36401 48.6264 5.2487C49.4908 6.10891 49.9286 7.20551 49.9286 8.5266ZM48.2614 8.55177C48.2614 7.71674 47.9816 7.00619 47.4221 6.43271C46.8626 5.84665 46.1689 5.55991 45.3415 5.55991C44.5631 5.55991 43.9057 5.85924 43.3581 6.45789C42.8105 7.05654 42.5427 7.74122 42.5427 8.51401C42.5427 9.32457 42.8224 10.0099 43.3707 10.5834C43.919 11.1569 44.5995 11.4555 45.4268 11.4555C46.1933 11.4555 46.85 11.1688 47.4102 10.5953C47.6838 10.3306 47.9004 10.0128 48.0469 9.66139C48.1934 9.31001 48.2659 8.93243 48.2614 8.55177ZM59.7239 12.8389L58.1909 13.0759V11.5926L57.8622 11.9661C57.5726 12.2373 57.2446 12.4642 56.8887 12.6395C56.3663 12.8807 55.7974 13.0041 55.2221 13.0011C54.65 13.0107 54.0825 12.8977 53.5578 12.6697C53.0331 12.4418 52.5632 12.104 52.1799 11.6793C51.3525 10.7939 50.9392 9.74768 50.9392 8.5266C50.9392 7.26775 51.3525 6.18374 52.168 5.28576C52.9834 4.38778 53.9807 3.93949 55.1731 3.93949C55.855 3.93949 56.4509 4.05139 56.9495 4.27589C57.2906 4.42955 57.6001 4.64537 57.8622 4.9123L58.1181 5.26059V1.37214L59.7476 1.13506L59.7239 12.8389ZM58.2881 8.6385C58.2881 7.76639 57.9957 7.03067 57.3999 6.43271C56.804 5.82147 56.134 5.52285 55.3682 5.52285C54.5164 5.52285 53.8353 5.80958 53.3121 6.38306C52.8247 6.93066 52.5694 7.60414 52.5694 8.38952C52.5694 9.27421 52.8247 10.0092 53.3359 10.5827C53.8471 11.1562 54.492 11.4429 55.2829 11.4429C56.0613 11.4429 56.7432 11.1814 57.3516 10.6457C57.972 10.0967 58.2881 9.42388 58.2881 8.6385ZM68.326 2.99326H63.7634V6.09632H67.3035V7.69156H63.7634V12.827L61.987 13.0885V1.38473H67.9728L68.326 2.99326ZM71.9885 2.08269L70.8933 3.46603L69.8471 2.08269L70.9542 0.711949L71.9885 2.08269ZM71.6598 12.8389L70.0296 13.0633V4.40107L71.6598 4.1521V12.8389ZM79.0213 4.06468L78.2548 5.83406C78.1541 5.81856 78.0524 5.81038 77.9506 5.80958C77.7925 5.80958 77.6345 5.82217 77.4757 5.84665C77.317 5.87113 77.147 5.93407 76.9652 6.02149C76.6246 6.17115 76.3323 6.49496 76.077 6.98101C75.7945 7.53265 75.6482 8.14392 75.6504 8.76368V12.827L74.0209 13.0885V4.40107L75.5294 4.12692V5.93407L76.1253 4.98714C76.405 4.66263 76.7337 4.42625 77.0988 4.28848C77.2932 4.21434 77.6464 4.1514 78.1814 4.10175L79.0213 4.06468ZM91.1636 12.8389L89.5334 13.0759V7.13067C89.5334 6.58168 89.4117 6.18304 89.1683 5.93407C88.9249 5.6851 88.5599 5.55991 88.085 5.55991C87.5136 5.55991 87.0751 5.79699 86.7835 6.27046C86.5884 6.59427 86.4793 6.94325 86.4793 7.29223V12.8263L84.8491 13.1256V7.16774C84.8491 6.64462 84.7274 6.24528 84.4959 5.97183C84.2525 5.69699 83.9364 5.55991 83.5224 5.55991H83.3643C82.7923 5.55991 82.3782 5.797 82.123 6.28305C81.9285 6.64462 81.8313 7.1055 81.8313 7.66638V12.8263L80.1403 13.1256V4.40107L81.6607 4.13951V5.2487C81.8313 4.98644 82.0013 4.77453 82.16 4.62557C82.5665 4.22947 83.1129 4.00981 83.6804 4.01433C84.3252 4.01433 84.7994 4.11434 85.1281 4.32624C85.4079 4.50108 85.6757 4.84936 85.9436 5.34801C86.5031 4.46332 87.294 4.01433 88.341 4.01433C89.3383 4.01433 90.081 4.32624 90.567 4.96196C90.9692 5.48508 91.1636 6.25787 91.1636 7.26775V12.8389ZM98.6118 10.2093C98.6118 11.0065 98.332 11.6674 97.7725 12.1787C97.2131 12.7018 96.5067 12.9514 95.6549 12.9514C95.0452 12.9596 94.4445 12.8046 93.9149 12.5025C93.3918 12.2038 93.0029 11.8667 92.7469 11.4681L93.8911 10.4463C93.9757 10.5708 94.0492 10.6701 94.1219 10.745C94.5485 11.1814 95.059 11.4059 95.6549 11.4059C96.0689 11.4059 96.3976 11.294 96.6284 11.0821C96.8718 10.8702 96.9816 10.5708 96.9816 10.1841C96.9816 9.74838 96.7018 9.44905 96.1423 9.2868L94.3534 8.72591C93.8421 8.46435 93.4771 8.19021 93.2456 7.87829C92.9903 7.51672 92.8567 7.04325 92.8567 6.43271C92.8503 6.07969 92.9211 5.72952 93.064 5.40665C93.2069 5.08378 93.4185 4.79597 93.6841 4.56332C94.2317 4.06468 94.8884 3.8276 95.6423 3.8276C96.2151 3.8276 96.7501 3.95208 97.2368 4.21434C97.7236 4.4766 98.0761 4.75005 98.2831 5.07456L97.3096 6.13339C97.1634 5.98704 97.0047 5.85366 96.8354 5.73475C96.4459 5.4606 96.0689 5.32353 95.7164 5.32353C95.3751 5.32353 95.0954 5.39836 94.8765 5.54732C94.6205 5.73475 94.4869 6.0089 94.4869 6.37047C94.4869 6.71945 94.6086 6.98101 94.8646 7.14326C95.0835 7.28034 95.5458 7.43 96.2759 7.59155C97.0053 7.76639 97.5655 8.06572 97.967 8.48953C98.4174 8.93782 98.6118 9.49871 98.6118 10.2093Z" fill="#5591FF"/>
</g>
<defs>
<clipPath id="clip0_134_24702">
<rect width="98.7" height="14.6866" fill="white"/>
</clipPath>
</defs>
</svg>
