<svg width="18" height="18" viewBox="0 0 18 18" fill="none" xmlns="http://www.w3.org/2000/svg">
<path opacity="0.5" d="M4.56966 12.375C4.51439 12.4265 4.47006 12.4886 4.43932 12.5576C4.40858 12.6266 4.39205 12.7011 4.39071 12.7766C4.38938 12.8521 4.40327 12.9272 4.43156 12.9972C4.45985 13.0672 4.50196 13.1309 4.55538 13.1843C4.60879 13.2377 4.67242 13.2798 4.74246 13.3081C4.8125 13.3364 4.88752 13.3503 4.96305 13.3489C5.03858 13.3476 5.11306 13.3311 5.18206 13.3003C5.25106 13.2696 5.31316 13.2253 5.36466 13.17L4.56966 12.375ZM5.36466 13.17L12.8647 5.67L12.0697 4.875L4.56966 12.375L5.36466 13.17Z" fill="white"/>
<path d="M5.71094 5.27246H12.4609V12.0225" stroke="white" stroke-width="1.125" stroke-linecap="round" stroke-linejoin="round"/>
</svg>
