<svg width="48" height="48" viewBox="0 0 48 48" fill="none" xmlns="http://www.w3.org/2000/svg">
<g clip-path="url(#clip0_57557_19719)">
<path d="M24 48C37.2548 48 48 37.2548 48 24C48 10.7452 37.2548 0 24 0C10.7452 0 0 10.7452 0 24C0 37.2548 10.7452 48 24 48Z" fill="#0B69C7"/>
<path d="M18.6339 15.2747C18.6345 15.9233 18.4427 16.5575 18.0828 17.097C17.7229 17.6366 17.211 18.0572 16.6119 18.3057C16.0128 18.5542 15.3535 18.6193 14.7173 18.493C14.0812 18.3666 13.4968 18.0543 13.0382 17.5957C12.5796 17.1371 12.2673 16.5527 12.141 15.9166C12.0146 15.2805 12.0798 14.6211 12.3282 14.022C12.5767 13.423 12.9974 12.911 13.5369 12.5511C14.0764 12.1912 14.7106 11.9994 15.3592 12C16.2274 12.0008 17.0599 12.3461 17.6738 12.9601C18.2878 13.574 18.6331 14.4065 18.6339 15.2747Z" fill="white"/>
<path d="M17.0803 19.917H13.6319C13.1837 19.917 12.8203 20.2803 12.8203 20.7286V35.1886C12.8203 35.6368 13.1837 36.0001 13.6319 36.0001H17.0803C17.5285 36.0001 17.8919 35.6368 17.8919 35.1886V20.7286C17.8919 20.2803 17.5285 19.917 17.0803 19.917Z" fill="white"/>
<path d="M35.925 28.2534V35.2544C35.925 35.4521 35.8464 35.6416 35.7067 35.7814C35.5669 35.9212 35.3774 35.9997 35.1797 35.9997H31.4786C31.281 35.9997 31.0914 35.9212 30.9517 35.7814C30.8119 35.6416 30.7334 35.4521 30.7334 35.2544V28.4713C30.7334 27.4576 31.0271 24.0502 28.0871 24.0502C25.8071 24.0502 25.3429 26.3934 25.245 27.445V35.2702C25.2409 35.464 25.1614 35.6486 25.0234 35.7848C24.8855 35.921 24.6999 35.9981 24.506 35.9997H20.925C20.827 36.0001 20.7299 35.9811 20.6393 35.9438C20.5487 35.9065 20.4663 35.8516 20.397 35.7823C20.3278 35.7131 20.2729 35.6307 20.2356 35.5401C20.1983 35.4495 20.1793 35.3524 20.1797 35.2544V20.665C20.1793 20.5668 20.1982 20.4696 20.2355 20.3788C20.2728 20.288 20.3276 20.2055 20.3969 20.1359C20.4661 20.0664 20.5484 20.0112 20.639 19.9736C20.7297 19.9359 20.8268 19.9165 20.925 19.9165H24.506C24.6054 19.9149 24.704 19.933 24.7963 19.9698C24.8886 20.0067 24.9726 20.0616 25.0434 20.1312C25.1143 20.2009 25.1705 20.284 25.2089 20.3756C25.2473 20.4672 25.2671 20.5656 25.2671 20.665V21.9281C26.1134 20.665 27.3702 19.6797 30.045 19.6797C35.9597 19.6765 35.925 25.2123 35.925 28.2534Z" fill="white"/>
</g>
<defs>
<clipPath id="clip0_57557_19719">
<rect width="48" height="48" fill="white"/>
</clipPath>
</defs>
</svg>
