<svg width="32" height="32" viewBox="0 0 32 32" fill="none" xmlns="http://www.w3.org/2000/svg">
<path d="M16.0052 13.3332C18.9507 13.3332 21.3385 10.9454 21.3385 7.99984C21.3385 5.05432 18.9507 2.6665 16.0052 2.6665C13.0597 2.6665 10.6719 5.05432 10.6719 7.99984C10.6719 10.9454 13.0597 13.3332 16.0052 13.3332Z" stroke="#F3FE00" stroke-width="1.5"/>
<path opacity="0.5" d="M24 11.9999C26.2093 11.9999 28 10.5066 28 8.66659C28 6.82659 26.2093 5.33325 24 5.33325M8 11.9999C5.79067 11.9999 4 10.5066 4 8.66659C4 6.82659 5.79067 5.33325 8 5.33325" stroke="#F3FE00" stroke-width="1.5" stroke-linecap="round"/>
<path d="M16 27.9999C20.4183 27.9999 24 25.6121 24 22.6666C24 19.7211 20.4183 17.3333 16 17.3333C11.5817 17.3333 8 19.7211 8 22.6666C8 25.6121 11.5817 27.9999 16 27.9999Z" stroke="#F3FE00" stroke-width="1.5"/>
<path opacity="0.5" d="M26.6693 25.3332C29.0079 24.8198 30.6693 23.5212 30.6693 21.9998C30.6693 20.4785 29.0079 19.1798 26.6693 18.6665M5.33594 25.3332C2.99727 24.8198 1.33594 23.5212 1.33594 21.9998C1.33594 20.4785 2.99727 19.1798 5.33594 18.6665" stroke="#F3FE00" stroke-width="1.5" stroke-linecap="round"/>
</svg>
