<svg width="32" height="32" viewBox="0 0 32 32" fill="none" xmlns="http://www.w3.org/2000/svg">
<path d="M16 17.3333V23.9999" stroke="#7F8405" stroke-width="1.5" stroke-linecap="round" stroke-linejoin="round"/>
<path d="M8 29.3333H24" stroke="#F3FE00" stroke-width="1.5" stroke-linecap="round" stroke-linejoin="round"/>
<path d="M17.3821 3.82185L18.79 6.66081C18.9819 7.056 19.4939 7.43507 19.9259 7.50765L22.4776 7.93511C24.1093 8.20933 24.4933 9.40299 23.3175 10.5805L21.3337 12.5807C20.9977 12.9194 20.8137 13.5726 20.9177 14.0405L21.4856 16.5165C21.9336 18.4764 20.9017 19.2345 19.1819 18.2102L16.7901 16.7826C16.3583 16.5245 15.6463 16.5245 15.2064 16.7826L12.8146 18.2102C11.1028 19.2345 10.0629 18.4682 10.5109 16.5165L11.0788 14.0405C11.1828 13.5726 10.9988 12.9194 10.6629 12.5807L8.67907 10.5805C7.5112 9.40299 7.88716 8.20933 9.51897 7.93511L12.0707 7.50765C12.4947 7.43507 13.0066 7.056 13.1986 6.66081L14.6064 3.82185C15.3743 2.28139 16.6221 2.28139 17.3821 3.82185Z" stroke="#F3FE00" stroke-width="1.5" stroke-linecap="round" stroke-linejoin="round"/>
<path d="M10.6641 28C10.6641 26.1144 10.6641 25.1716 11.2498 24.5857C11.8356 24 12.7784 24 14.6641 24H17.3307C19.2163 24 20.1591 24 20.745 24.5857C21.3307 25.1716 21.3307 26.1144 21.3307 28V29.3333H10.6641V28Z" stroke="#F3FE00" stroke-width="1.5" stroke-linecap="round" stroke-linejoin="round"/>
</svg>
