<svg width="99" height="30" viewBox="0 0 99 30" fill="none" xmlns="http://www.w3.org/2000/svg">
<g clip-path="url(#clip0_134_24715)">
<path d="M27.0174 18.6255C25.4135 18.6255 23.9106 17.9464 22.5451 16.841L22.8776 15.2804L22.8921 15.2226C23.1882 13.561 24.1275 10.7721 27.0174 10.7721C29.1848 10.7721 30.9477 12.535 30.9477 14.7023C30.9404 16.8625 29.1776 18.6255 27.0174 18.6255ZM27.0174 6.79128C23.3254 6.79128 20.4645 9.18992 19.3014 13.1347C17.524 10.4687 16.1802 7.26815 15.3927 4.57324H11.4191V14.9119C11.4191 16.9493 9.75735 18.6108 7.71993 18.6108C5.68251 18.6108 4.02096 16.9493 4.02096 14.9119V4.57324H0.0469203V14.9119C0.0324637 19.1457 3.47874 22.6207 7.71241 22.6207C11.9463 22.6207 15.3926 19.1457 15.3926 14.9119V13.178C16.1655 14.7891 17.1119 16.4146 18.2608 17.8597L15.8259 29.3036H19.8936L21.6563 21.0024C23.2024 21.9922 24.9798 22.6136 27.0172 22.6136C31.3737 22.6136 34.9212 19.0445 34.9212 14.6879C34.9212 10.3386 31.3739 6.79128 27.0174 6.79128Z" fill="#6FDA44"/>
<path d="M47.0486 7.23921L49.6134 17.5778L52.4384 7.23921H55.8051L51.4631 22.1801H48.0962L45.4304 11.7763L42.7716 22.1727H39.4049L35.0625 7.23207H38.4294L41.2542 17.5707L43.819 7.23207H47.0484V7.2394L47.0486 7.23921ZM63.8607 6.79124C59.4898 6.79124 55.9497 10.3385 55.9497 14.7023C55.9497 19.0734 59.4969 22.6136 63.8607 22.6136C68.2318 22.6136 71.7791 19.0734 71.7791 14.7023C71.7791 10.3314 68.2318 6.79124 63.8607 6.79124ZM63.8607 19.3624C61.2888 19.3624 59.208 17.2816 59.208 14.7096C59.208 12.1375 61.2959 10.0569 63.8607 10.0569C66.4328 10.0569 68.5134 12.1375 68.5134 14.7096C68.5134 17.2744 66.4328 19.3624 63.8607 19.3624ZM81.3953 10.5843C79.1341 10.5843 77.3062 12.4193 77.3062 14.6734V22.1727H73.9175V7.23921H77.3062V9.53666C77.3062 9.53666 78.7511 7.23188 81.7205 7.23188H82.7608V10.5843H81.3953ZM92.7673 14.1244C95.1729 12.7661 96.8059 10.1868 96.8059 7.23188H93.4172C93.4172 9.7244 91.3945 11.7474 88.9019 11.7474H88.4467V0.0288086H85.0584V22.1725H88.4467V15.1358H88.8514C89.1838 15.1358 89.6173 15.3527 89.8123 15.6198L94.6239 22.1727H98.6843L92.7673 14.1244Z" fill="white"/>
</g>
<defs>
<clipPath id="clip0_134_24715">
<rect width="98.7" height="29.4916" fill="white"/>
</clipPath>
</defs>
</svg>
