<svg width="32" height="8" viewBox="0 0 32 8" fill="none" xmlns="http://www.w3.org/2000/svg">
<g clip-path="url(#clip0_134_24520)">
<path d="M10.2527 3.12295C10.2527 2.55335 9.69882 1.94841 8.74033 1.94841C7.66399 1.94841 6.48159 2.73798 6.30089 4.3132C6.11626 5.90414 7.10618 6.61122 8.10395 6.61122C9.10172 6.61122 9.62418 6.22233 10.1584 5.7038C9.69882 5.12635 9.10565 5.39347 8.99173 5.45239C8.86603 5.51524 8.70497 5.60167 8.375 5.60167C7.99003 5.60167 7.59721 5.42882 7.59721 4.70996C10.0641 4.4664 10.2527 3.69254 10.2527 3.12295ZM9.03102 3.21723C9.0153 3.394 8.9446 3.69647 7.69542 3.86539C7.95861 2.93046 8.46142 2.85976 8.69319 2.85976C8.90924 2.85976 9.04673 3.02867 9.03102 3.21723ZM4.85137 3.37043C4.85137 3.37043 4.32106 5.036 4.27785 5.17349C4.26214 5.03207 3.87324 2.04268 3.87324 2.04268C2.96975 2.04268 2.48657 2.68691 2.23124 3.3665C2.23124 3.3665 1.58701 5.036 1.53201 5.17742C1.52808 5.04778 1.43381 3.38614 1.43381 3.38614C1.37881 2.55335 0.616733 2.04661 0 2.04661L0.746365 6.57587C1.69307 6.57194 2.20374 5.93164 2.47086 5.25205C2.47086 5.25205 3.04046 3.77896 3.06402 3.71218C3.06795 3.77504 3.47256 6.57587 3.47256 6.57587C4.42319 6.57587 4.93387 5.97485 5.20884 5.31883L6.54051 2.04661C5.60167 2.04661 5.10671 2.68691 4.85137 3.37043ZM13.741 1.94055C13.1557 1.94055 12.7078 2.25874 12.3307 2.7262V2.72227L12.6686 0C11.8908 0 11.2583 0.675657 11.1366 1.68129L10.5473 6.54051C10.9951 6.54051 11.4705 6.41088 11.7258 6.08091C11.9536 6.37553 12.2954 6.61122 12.8021 6.61122C14.1142 6.61122 15.0137 5.08707 15.0137 3.65719C15.0059 2.35301 14.3734 1.94055 13.741 1.94055ZM13.6192 4.27785C13.4817 5.07528 13.0378 5.61738 12.6096 5.61738C12.1775 5.61738 11.9929 5.42489 11.9929 5.42489C12.0754 4.72567 12.1265 4.29749 12.2836 3.92824C12.4407 3.55898 12.8139 2.96975 13.2028 2.96975C13.5838 2.96975 13.7567 3.47649 13.6192 4.27785ZM18.2899 2.04661H17.3746L17.3785 1.99947C17.4414 1.40238 17.5828 1.08812 18.0502 1.03705C18.3684 1.00563 18.5099 0.840643 18.5452 0.659944C18.5727 0.518527 18.6591 0.0274977 18.6591 0.0274977C16.8207 0.0157129 16.2433 0.809217 16.094 2.01911L16.0901 2.04661H16.0704C15.7719 2.04661 15.4419 2.38444 15.3869 2.81262L15.3673 2.96975H15.9801L15.4655 7.2201L15.3083 7.98218C15.328 7.98218 15.3515 7.98611 15.3712 7.98611C16.2315 7.95468 16.7814 7.27509 16.9032 6.28911L17.3039 2.96975H17.5906C17.8735 2.96975 18.2034 2.68691 18.2624 2.21553L18.2899 2.04661ZM23.0509 1.96805C21.9942 1.96805 20.9964 2.74584 20.69 3.96752C20.3836 5.1892 20.8472 6.63479 22.4027 6.63479C23.9544 6.63479 24.85 5.13028 24.85 3.87717C24.85 2.63192 24.0055 1.96805 23.0509 1.96805ZM23.4791 4.23857C23.4241 4.79245 23.1805 5.63309 22.5127 5.63309C21.841 5.63309 21.9353 4.65103 22.0021 4.18357C22.0728 3.68469 22.3517 2.97368 22.9527 2.97368C23.4909 2.97368 23.5419 3.61398 23.4791 4.23857ZM30.0707 3.37043C30.0707 3.37043 29.5403 5.036 29.4971 5.17349C29.4814 5.03207 29.0925 2.04268 29.0925 2.04268C28.189 2.04268 27.7059 2.68691 27.4505 3.3665C27.4505 3.3665 26.8063 5.036 26.7513 5.17742C26.7474 5.04778 26.6531 3.38614 26.6531 3.38614C26.5981 2.55335 25.836 2.04661 25.2193 2.04661L25.9617 6.57587C26.9084 6.57194 27.4191 5.93164 27.6862 5.25205C27.6862 5.25205 28.2558 3.77896 28.2754 3.71218C28.2794 3.77504 28.684 6.57587 28.684 6.57587C29.6346 6.57587 30.1453 5.97485 30.4203 5.31883L31.7519 2.04661C30.817 2.04661 30.3221 2.68691 30.0707 3.37043ZM19.1541 0.0274977L18.3841 6.23804L18.227 7.00405C18.2467 7.00405 18.2702 7.00797 18.2899 7.00797C19.1187 6.99619 19.708 6.26947 19.818 5.35419L20.2618 1.79128C20.3954 0.703154 19.7472 0.0274977 19.1541 0.0274977Z" fill="#4353FF"/>
</g>
<defs>
<clipPath id="clip0_134_24520">
<rect width="31.7519" height="8" fill="white"/>
</clipPath>
</defs>
</svg>
