<svg width="48" height="48" viewBox="0 0 48 48" fill="none" xmlns="http://www.w3.org/2000/svg">
<g clip-path="url(#clip0_57557_19729)">
<path d="M24 48C10.7472 48 0 37.2528 0 24C0 10.7472 10.7472 0 24 0C37.2528 0 48 10.7472 48 24C48 37.2528 37.2528 48 24 48Z" fill="#25D366"/>
<path fill-rule="evenodd" clip-rule="evenodd" d="M35.2265 12.8254C32.2505 9.84464 28.2857 8.20304 24.0665 8.19824C15.3737 8.19824 8.29366 15.2734 8.29366 23.971C8.29366 26.7502 9.01846 29.467 10.4009 31.8574L8.16406 40.0318L16.5257 37.8382C18.8297 39.0958 21.4217 39.7582 24.0617 39.7582H24.0665C32.7593 39.7582 39.8345 32.683 39.8393 23.9854C39.8441 19.771 38.2073 15.8062 35.2265 12.8254ZM24.0713 37.0942H24.0665C21.7145 37.0942 19.4057 36.4606 17.3945 35.2654L16.9145 34.9822L11.9513 36.283L13.2761 31.4446L12.9641 30.9502C11.6537 28.8622 10.9577 26.4526 10.9577 23.971C10.9625 16.7422 16.8425 10.8622 24.0761 10.8622C27.5801 10.8622 30.8681 12.2302 33.3449 14.707C35.8217 17.1838 37.1849 20.4814 37.1801 23.9806C37.1801 31.2142 31.2953 37.0942 24.0713 37.0942ZM31.2617 27.2734C30.8681 27.0766 28.9289 26.1214 28.5689 25.9918C28.2089 25.8622 27.9449 25.795 27.6809 26.1886C27.4169 26.5822 26.6633 27.4702 26.4329 27.7342C26.2025 27.9982 25.9721 28.0318 25.5785 27.835C25.1849 27.6382 23.9129 27.2206 22.4105 25.8766C21.2393 24.8302 20.4473 23.539 20.2169 23.1454C19.9865 22.7518 20.1929 22.5358 20.3897 22.339C20.5673 22.1614 20.7833 21.8782 20.9801 21.6478C21.1769 21.4174 21.2441 21.2542 21.3737 20.9902C21.5033 20.7262 21.4409 20.4958 21.3401 20.299C21.2393 20.1022 20.4521 18.163 20.1257 17.371C19.8041 16.603 19.4825 16.7086 19.2377 16.6942C19.0073 16.6846 18.7433 16.6798 18.4841 16.6798C18.2201 16.6798 17.7929 16.7806 17.4329 17.1742C17.0729 17.5678 16.0553 18.523 16.0553 20.4622C16.0553 22.4014 17.4665 24.2782 17.6633 24.5374C17.8601 24.8014 20.4425 28.7806 24.3977 30.4894C25.3385 30.8974 26.0729 31.1374 26.6441 31.3198C27.5897 31.6222 28.4489 31.579 29.1257 31.4782C29.8841 31.363 31.4585 30.523 31.7849 29.6062C32.1113 28.6846 32.1113 27.8974 32.0153 27.7342C31.9193 27.571 31.6553 27.475 31.2617 27.2734Z" fill="white"/>
</g>
<defs>
<clipPath id="clip0_57557_19729">
<rect width="48" height="48" fill="white"/>
</clipPath>
</defs>
</svg>
