<svg width="48" height="48" viewBox="0 0 48 48" fill="none" xmlns="http://www.w3.org/2000/svg">
<g clip-path="url(#clip0_57557_19734)">
<path d="M24 0C10.7456 0 0 10.7456 0 24C0 37.2544 10.7456 48 24 48C37.2544 48 48 37.2544 48 24C48 10.7456 37.2544 0 24 0Z" fill="black"/>
<path d="M26.6279 21.8285L36.902 9.88574H34.4674L25.5463 20.2555L18.4212 9.88574H10.2031L20.9778 25.5667L10.2031 38.0906H12.6379L22.0587 27.1397L29.5834 38.0906H37.8015L26.6273 21.8285H26.6279ZM13.5152 11.7186H17.2548L34.4685 36.3411H30.7288L13.5152 11.7186Z" fill="white"/>
</g>
<defs>
<clipPath id="clip0_57557_19734">
<rect width="48" height="48" fill="white"/>
</clipPath>
</defs>
</svg>
