<svg width="29" height="8" viewBox="0 0 29 8" fill="none" xmlns="http://www.w3.org/2000/svg">
<g clip-path="url(#clip0_134_24470)">
<path d="M7.34375 0H8.62696V8H7.34375V0ZM13.1182 5.448C13.1182 6.67232 12.0862 6.76992 11.7792 6.76992C11.0121 6.76992 10.8726 6.05376 10.8726 5.62176V2.56H9.58937V5.61536C9.58937 6.37376 9.82805 6.99968 10.2464 7.41696C10.6159 7.78592 11.1696 7.98752 11.7696 7.98752C12.1949 7.98752 12.7974 7.85536 13.1182 7.5632V8H14.4014V2.56H13.1182V5.448ZM16.9678 0.64H15.6846V2.56H14.7222V3.84H15.6846V8H16.9678V3.84H17.9303V2.56H16.9678V0.64ZM21.9714 6.37344C21.692 6.624 21.3231 6.76288 20.9182 6.76288C20.0257 6.76288 19.3703 6.10912 19.3703 5.21152C19.3703 4.31392 20.0049 3.68768 20.9182 3.68768C21.316 3.68768 21.692 3.81984 21.9785 4.0704L22.1732 4.23744L23.0384 3.37472L22.8219 3.17984C22.3127 2.72128 21.6368 2.464 20.9179 2.464C19.3139 2.464 18.149 3.61856 18.149 5.2048C18.149 6.78432 19.3418 7.98016 20.9179 7.98016C21.6503 7.98016 22.3333 7.72288 22.836 7.25696L23.0451 7.06208L22.1665 6.2L21.9714 6.37344ZM27.6185 3.03424C27.2489 2.6656 26.8159 2.464 26.216 2.464C25.7906 2.464 25.3087 2.59616 24.9879 2.888V0H23.7047V8H24.9879V5.0032C24.9879 3.77888 25.8599 3.6816 26.1669 3.6816C26.9339 3.6816 26.9127 4.39808 26.9127 4.82944V8H28.196V4.83616C28.196 4.07776 28.0372 3.45184 27.6185 3.03424Z" fill="black"/>
<path d="M20.8809 4.2998C21.1269 4.2998 21.3629 4.39731 21.5369 4.57086C21.7109 4.74441 21.8086 4.9798 21.8086 5.22524C21.8086 5.47069 21.7109 5.70608 21.5369 5.87963C21.3629 6.05318 21.1269 6.15068 20.8809 6.15068C20.6348 6.15068 20.3988 6.05318 20.2249 5.87963C20.0509 5.70608 19.9531 5.47069 19.9531 5.22524C19.9531 4.9798 20.0509 4.74441 20.2249 4.57086C20.3988 4.39731 20.6348 4.2998 20.8809 4.2998Z" fill="#FF3D2E"/>
<path d="M5.55301 5.99035C5.06507 6.49115 4.40229 6.76251 3.70486 6.76251C2.27536 6.76251 1.23596 5.64251 1.23596 4.10523C1.23596 2.56091 2.27536 1.44091 3.70486 1.44091C4.39555 1.44091 5.05095 1.71195 5.54627 2.20603L5.74132 2.40091L6.59915 1.54523L6.41084 1.35035C5.69962 0.619793 4.73721 0.223633 3.70486 0.223633C1.59879 0.223633 0.015625 1.89307 0.015625 4.11195C0.015625 6.32411 1.60585 7.98683 3.70486 7.98683C4.74426 7.98683 5.70667 7.58363 6.4179 6.85307L6.60621 6.65819L5.75544 5.78875L5.55301 5.99035Z" fill="black"/>
</g>
<defs>
<clipPath id="clip0_134_24470">
<rect width="28.2" height="8" fill="white"/>
</clipPath>
</defs>
</svg>
