<svg width="99" height="28" viewBox="0 0 99 28" fill="none" xmlns="http://www.w3.org/2000/svg">
<g clip-path="url(#clip0_134_24686)">
<path d="M25.7031 0H30.1944V28H25.7031V0ZM45.9137 19.068C45.9137 23.3531 42.3016 23.6947 41.2271 23.6947C38.5425 23.6947 38.054 21.1882 38.054 19.6762V8.96H33.5628V19.6538C33.5628 22.3082 34.3982 24.4989 35.8623 25.9594C37.1558 27.2507 39.0938 27.9563 41.1934 27.9563C42.6823 27.9563 44.7909 27.4938 45.9137 26.4712V28H50.405V8.96H45.9137V19.068ZM59.3875 2.24H54.8962V8.96H51.5278V13.44H54.8962V28H59.3875V13.44H62.7559V8.96H59.3875V2.24ZM76.8999 22.307C75.922 23.184 74.6307 23.6701 73.2138 23.6701C70.0901 23.6701 67.7962 21.3819 67.7962 18.2403C67.7962 15.0987 70.0171 12.9069 73.2138 12.9069C74.606 12.9069 75.922 13.3694 76.9247 14.2464L77.6062 14.831L80.6344 11.8115L79.8765 11.1294C78.0946 9.52448 75.7289 8.624 73.2126 8.624C67.5986 8.624 63.5217 12.665 63.5217 18.2168C63.5217 23.7451 67.6963 27.9306 73.2126 27.9306C75.776 27.9306 78.1665 27.0301 79.9259 25.3994L80.658 24.7173L77.5826 21.7L76.8999 22.307ZM96.6648 10.6198C95.3713 9.3296 93.8555 8.624 91.7559 8.624C90.267 8.624 88.5806 9.08656 87.4577 10.108V0H82.9665V28H87.4577V17.5112C87.4577 13.2261 90.5095 12.8856 91.5841 12.8856C94.2687 12.8856 94.1946 15.3933 94.1946 16.903V28H98.6859V16.9266C98.6859 14.2722 98.1301 12.0814 96.6648 10.6198Z" fill="white"/>
<path d="M73.0831 15.0513C73.9443 15.0513 74.7702 15.3925 75.3792 16C75.9882 16.6074 76.3303 17.4313 76.3303 18.2903C76.3303 19.1494 75.9882 19.9732 75.3792 20.5807C74.7702 21.1881 73.9443 21.5293 73.0831 21.5293C72.2219 21.5293 71.396 21.1881 70.787 20.5807C70.178 19.9732 69.8359 19.1494 69.8359 18.2903C69.8359 17.4313 70.178 16.6074 70.787 16C71.396 15.3925 72.2219 15.0513 73.0831 15.0513Z" fill="#FF3D2E"/>
<path d="M19.4355 20.9677C17.7277 22.7205 15.408 23.6703 12.967 23.6703C7.96377 23.6703 4.32586 19.7503 4.32586 14.3698C4.32586 8.96466 7.96377 5.04466 12.967 5.04466C15.3844 5.04466 17.6783 5.9933 19.412 7.72258L20.0946 8.40466L23.097 5.40978L22.4379 4.7277C19.9487 2.17074 16.5802 0.78418 12.967 0.78418C5.59576 0.78418 0.0546875 6.62722 0.0546875 14.3933C0.0546875 22.1359 5.62046 27.9554 12.967 27.9554C16.6049 27.9554 19.9734 26.5442 22.4626 23.9872L23.1217 23.3051L20.144 20.2621L19.4355 20.9677Z" fill="white"/>
</g>
<defs>
<clipPath id="clip0_134_24686">
<rect width="98.7" height="28" fill="white"/>
</clipPath>
</defs>
</svg>
