<svg width="33" height="8" viewBox="0 0 33 8" fill="none" xmlns="http://www.w3.org/2000/svg">
<g clip-path="url(#clip0_134_24504)">
<path d="M9.93479 3.19503C10.3069 3.19503 10.6086 2.89333 10.6086 2.52118C10.6086 2.14903 10.3069 1.84733 9.93479 1.84733C9.56262 1.84733 9.26095 2.14903 9.26095 2.52118C9.26095 2.89333 9.56262 3.19503 9.93479 3.19503ZM32.1728 5.49734C32.0703 5.42526 31.9911 5.41334 31.9255 5.5533C30.7938 8.0038 28.8866 6.78098 29.0761 6.8886C29.4991 6.69511 30.6117 5.80303 30.4435 4.57132C30.3414 3.81855 29.6952 3.48465 29.0092 3.60421C27.8119 3.81289 27.3713 5.10403 27.5956 6.2472C27.6349 6.44347 27.705 6.60541 27.775 6.76399C26.4219 7.86405 25.8846 5.7792 25.8236 5.5301C25.8212 5.51679 26.8684 4.64413 27.1596 2.56468C27.4649 0.385311 26.7695 -0.0114681 26.0583 0.000898637C24.7425 0.0238258 24.3869 2.77244 24.8646 5.06322C24.8246 5.07364 24.6384 5.17674 24.3392 5.18827C24.1239 4.51105 23.204 3.91741 22.9632 4.14613C22.3607 4.71844 23.1094 5.83718 23.6361 5.92496C23.3197 7.8736 21.3406 7.39095 21.7091 4.94962C22.3535 3.75317 22.8437 1.97406 22.7562 0.900025C22.7252 0.519747 22.444 0.0102779 21.808 0.0354631C20.5848 0.083888 20.4518 2.83327 20.5952 4.78462C20.5881 4.73657 20.52 5.0217 20.0188 5.1635C19.9002 4.5055 18.8405 3.84505 18.591 4.16259C18.1241 4.75689 18.9333 5.81648 19.3167 5.89043C19.0002 7.83904 17.0212 7.35638 17.3896 4.91506C18.034 3.71861 18.5242 1.93949 18.4367 0.865461C18.4057 0.485183 18.1246 -0.0242865 17.4885 0.000898637C16.2653 0.0493583 16.1323 2.79871 16.2758 4.75005C16.2685 4.70128 16.1989 4.99575 15.6772 5.13526C15.6597 4.28161 14.5961 3.89021 14.3406 4.16259C13.8853 4.64806 14.4449 5.64428 14.9626 5.89043C14.6462 7.83904 12.6671 7.35638 13.0356 4.91506C13.68 3.71861 14.1702 1.93949 14.0827 0.865461C14.0517 0.485183 13.7705 -0.0242865 13.1345 0.000898637C11.9113 0.0493583 11.8129 2.93693 11.9563 4.88827C11.5534 6.61403 10.2023 8.76922 10.3778 4.45193C10.3951 4.14912 10.4141 4.03406 10.263 3.92071C10.1498 3.83255 9.89251 3.87493 9.75189 3.87847C9.5809 3.88532 9.53802 3.98536 9.50025 4.13651C9.4122 4.52686 9.39643 4.90526 9.38385 5.42157C9.37558 5.66311 9.35619 5.7758 9.2632 6.10512C9.17022 6.43443 8.64019 7.03624 8.34992 6.93567C7.94731 6.79717 8.07931 5.66085 8.15481 4.88008C8.21771 4.26302 8.01642 3.98599 7.50057 3.88521C7.19858 3.82227 7.01508 3.83196 6.70062 3.73285C6.40322 3.63913 6.33592 3.07668 5.70168 3.26413C5.35467 3.36671 5.57771 4.10166 5.49435 4.64639C5.08441 7.32578 4.23141 7.39935 3.83567 6.09775C5.61791 1.73398 4.35125 0.0136128 3.60989 0.0136128C2.8376 0.0136128 1.95482 0.545384 2.32863 3.94805C2.14687 3.89504 2.091 3.86649 1.89204 3.86649C0.766725 3.86649 0 4.77597 0 5.89787C0 7.01977 0.766725 7.92925 1.89204 7.92925C2.55636 7.92925 3.0227 7.62724 3.37597 7.15997C3.60641 7.48995 3.88706 7.93436 4.40028 7.91435C5.92997 7.85481 6.37491 4.71771 6.42737 4.54273C6.59093 4.56792 6.74566 4.61561 6.89663 4.6408C7.14827 4.6786 7.16651 4.77815 7.16085 5.03119C7.0942 7.16473 7.48799 7.91178 8.38126 7.91178C8.87897 7.91178 9.32262 7.42294 9.62822 7.07334C9.85647 7.54432 10.2202 7.8974 10.7081 7.91178C11.8905 7.94113 12.3431 6.05718 12.3019 6.3051C12.2695 6.49964 12.6854 7.90115 13.9026 7.90625C15.4104 7.91254 15.6906 6.25491 15.7241 5.97725C15.7282 5.92198 15.7301 5.92778 15.7241 5.97725C15.7237 5.98239 15.7233 5.98787 15.7229 5.99409C16.2015 5.90509 16.4485 5.64852 16.4485 5.64852C16.4485 5.64852 16.8329 7.93203 18.2566 7.90625C19.735 7.87947 20.0138 6.38111 20.0505 6.08889C20.0553 6.01956 20.0582 6.02768 20.0505 6.08889C20.0503 6.09178 20.0501 6.09431 20.0499 6.09747C20.6185 5.89064 20.768 5.68308 20.768 5.68308C20.768 5.68308 21.0735 7.92119 22.5761 7.94078C23.9151 7.95826 24.4114 6.58745 24.4143 6.01365C24.6401 6.01605 25.0579 5.87974 25.0481 5.87192C25.0481 5.87192 25.5385 7.82875 26.9082 7.92925C27.5513 7.97642 28.0337 7.56752 28.3087 7.38094C28.955 7.9042 31.107 8.5725 32.4657 6.26932C32.6575 5.93879 32.2452 5.5483 32.1728 5.49734ZM1.83773 7.16946C1.18119 7.16946 0.760192 6.56255 0.760192 5.90815C0.760192 5.25375 1.14661 4.64684 1.80315 4.64684C2.09864 4.64684 2.26293 4.67936 2.49305 4.87945C2.53482 5.0438 2.65303 5.423 2.7106 5.5952C2.78767 5.82558 2.87937 6.02171 2.97187 6.23518C2.83972 6.78268 2.40671 7.16946 1.83773 7.16946ZM3.43761 4.8987C3.41034 4.8552 3.416 4.88192 3.38546 4.84082C3.26513 4.51355 3.03319 3.78298 3.00633 2.95315C2.97597 2.01453 3.13247 0.914303 3.5938 0.914303C3.90638 0.914303 4.2386 3.14411 3.43761 4.8987ZM12.682 3.92071C12.6079 3.36369 12.604 0.880503 13.2003 0.948867C13.5295 1.08219 12.9915 3.42542 12.682 3.92071ZM17.036 3.92071C16.9619 3.36369 16.958 0.880503 17.5543 0.948867C17.8835 1.08219 17.3456 3.42542 17.036 3.92071ZM21.3555 3.95528C21.2814 3.39825 21.2775 0.915067 21.8738 0.983432C22.203 1.11676 21.665 3.45998 21.3555 3.95528ZM26.1242 0.803523C26.6693 0.747039 26.6468 3.12712 25.5526 4.62968C25.4115 4.08662 25.1951 0.990032 26.1242 0.803523ZM28.4156 5.92496C28.2405 5.04071 28.6929 4.45992 29.1593 4.39624C29.3223 4.37019 29.5585 4.47579 29.6057 4.67318C29.6831 5.04519 29.5944 5.59697 28.5505 6.29711C28.5521 6.30309 28.4546 6.12186 28.4156 5.92496Z" fill="black"/>
</g>
<defs>
<clipPath id="clip0_134_24504">
<rect width="32.5161" height="8" fill="white"/>
</clipPath>
</defs>
</svg>
