<svg width="20" height="20" viewBox="0 0 20 20" fill="none" xmlns="http://www.w3.org/2000/svg">
<path d="M4.16406 10.0003C4.16406 7.65949 4.16406 6.48949 4.72573 5.64866C4.96899 5.28454 5.28161 4.97192 5.64573 4.72866C6.48656 4.16699 7.65573 4.16699 9.9974 4.16699C12.3391 4.16699 13.5082 4.16699 14.3491 4.72866C14.7132 4.97192 15.0258 5.28454 15.2691 5.64866C15.8307 6.48949 15.8307 7.65866 15.8307 10.0003C15.8307 12.342 15.8307 13.5112 15.2691 14.352C15.0258 14.7161 14.7132 15.0287 14.3491 15.272C13.5082 15.8337 12.3391 15.8337 9.9974 15.8337C7.65573 15.8337 6.48656 15.8337 5.64573 15.272C5.28161 15.0287 4.96899 14.7161 4.72573 14.352C4.16406 13.5112 4.16406 12.342 4.16406 10.0003Z" stroke="black" stroke-width="1.5"/>
<path d="M10.709 7.5L8.32812 10H11.6615L9.28062 12.5" stroke="black" stroke-width="1.5" stroke-linecap="round" stroke-linejoin="round"/>
</svg>
